<mxfile host="app.diagrams.net" modified="2021-04-16T12:31:37.149Z" agent="5.0 (Windows NT 10.0; Win64; x64) AppleWebKit/537.36 (KHTML, like Gecko) Chrome/90.0.4430.72 Safari/537.36" etag="xgw-BvN1ZyNR9Wnm2Xhz" version="14.6.1" type="github" pages="2">
  <diagram name="Page-1" id="82e54ff1-d628-8f03-85c4-9753963a91cd">
    <mxGraphModel dx="1422" dy="762" grid="1" gridSize="10" guides="1" tooltips="1" connect="1" arrows="1" fold="1" page="1" pageScale="1" pageWidth="1100" pageHeight="850" background="#ffffff" math="0" shadow="0">
      <root>
        <mxCell id="0" />
        <mxCell id="1" parent="0" />
        <mxCell id="4ec97bd9e5d20128-1" value="" style="line;strokeWidth=2;html=1;fillColor=none;fontSize=28;fontColor=#004D99;strokeColor=#004D99;" parent="1" vertex="1">
          <mxGeometry x="40" y="400" width="1000" height="10" as="geometry" />
        </mxCell>
        <mxCell id="4ec97bd9e5d20128-5" value="Stage 1" style="shape=offPageConnector;whiteSpace=wrap;html=1;fillColor=#0075E8;fontSize=15;fontColor=#FFFFFF;size=0.5093750000000015;verticalAlign=top;strokeColor=none;" parent="1" vertex="1">
          <mxGeometry x="120" y="340" width="160" height="40" as="geometry" />
        </mxCell>
        <mxCell id="4ec97bd9e5d20128-6" value="&lt;span&gt;Stage 3&lt;/span&gt;" style="shape=offPageConnector;whiteSpace=wrap;html=1;fillColor=#0075E8;fontSize=15;fontColor=#FFFFFF;size=0.5093750000000015;verticalAlign=top;strokeColor=none;" parent="1" vertex="1">
          <mxGeometry x="573" y="340" width="160" height="40" as="geometry" />
        </mxCell>
        <mxCell id="4ec97bd9e5d20128-7" value="&lt;span&gt;Stage 2&lt;/span&gt;" style="shape=offPageConnector;whiteSpace=wrap;html=1;fillColor=#0075E8;fontSize=15;fontColor=#FFFFFF;size=0.4178571428571445;flipV=1;verticalAlign=bottom;strokeColor=none;spacingBottom=4;" parent="1" vertex="1">
          <mxGeometry x="347" y="425" width="160" height="35" as="geometry" />
        </mxCell>
        <mxCell id="4ec97bd9e5d20128-8" value="&lt;span&gt;Stage 4&lt;/span&gt;" style="shape=offPageConnector;whiteSpace=wrap;html=1;fillColor=#0075E8;fontSize=15;fontColor=#FFFFFF;size=0.4178571428571445;flipV=1;verticalAlign=bottom;strokeColor=none;spacingBottom=4;" parent="1" vertex="1">
          <mxGeometry x="800" y="425" width="160" height="35" as="geometry" />
        </mxCell>
        <mxCell id="4ec97bd9e5d20128-9" value="" style="ellipse;whiteSpace=wrap;html=1;fillColor=#61BAFF;fontSize=28;fontColor=#004D99;strokeWidth=3;strokeColor=#004D99;" parent="1" vertex="1">
          <mxGeometry x="190" y="395" width="20" height="20" as="geometry" />
        </mxCell>
        <mxCell id="4ec97bd9e5d20128-10" value="" style="ellipse;whiteSpace=wrap;html=1;fillColor=#61BAFF;fontSize=28;fontColor=#004D99;strokeWidth=3;strokeColor=#004D99;" parent="1" vertex="1">
          <mxGeometry x="417" y="395" width="20" height="20" as="geometry" />
        </mxCell>
        <mxCell id="4ec97bd9e5d20128-11" value="" style="ellipse;whiteSpace=wrap;html=1;fillColor=#61BAFF;fontSize=28;fontColor=#004D99;strokeWidth=3;strokeColor=#004D99;" parent="1" vertex="1">
          <mxGeometry x="643" y="395" width="20" height="20" as="geometry" />
        </mxCell>
        <mxCell id="4ec97bd9e5d20128-13" value="" style="ellipse;whiteSpace=wrap;html=1;fillColor=#61BAFF;fontSize=28;fontColor=#004D99;strokeWidth=3;strokeColor=#004D99;" parent="1" vertex="1">
          <mxGeometry x="870" y="395" width="20" height="20" as="geometry" />
        </mxCell>
        <mxCell id="4ec97bd9e5d20128-14" value="&lt;h1&gt;Heading&lt;/h1&gt;&lt;p&gt;Lorem ipsum dolor sit amet, consectetur adipisicing elit, sed do eiusmod tempor incididunt ut labore et dolore magna aliqua.&lt;/p&gt;" style="text;html=1;spacing=5;spacingTop=-20;whiteSpace=wrap;overflow=hidden;strokeColor=none;strokeWidth=3;fillColor=#E6E6E6;fontSize=13;fontColor=#000000;align=center;rounded=1;" parent="1" vertex="1">
          <mxGeometry x="93" y="430" width="215" height="120" as="geometry" />
        </mxCell>
        <mxCell id="4ec97bd9e5d20128-16" value="&lt;h1&gt;Heading&lt;/h1&gt;&lt;p&gt;Lorem ipsum dolor sit amet, consectetur adipisicing elit, sed do eiusmod tempor incididunt ut labore et dolore magna aliqua.&lt;/p&gt;" style="text;html=1;spacing=5;spacingTop=-20;whiteSpace=wrap;overflow=hidden;strokeColor=none;strokeWidth=3;fillColor=#E6E6E6;fontSize=13;fontColor=#000000;align=center;rounded=1;" parent="1" vertex="1">
          <mxGeometry x="319" y="250" width="215" height="120" as="geometry" />
        </mxCell>
        <mxCell id="4ec97bd9e5d20128-17" value="&lt;h1&gt;Heading&lt;/h1&gt;&lt;p&gt;Lorem ipsum dolor sit amet, consectetur adipisicing elit, sed do eiusmod tempor incididunt ut labore et dolore magna aliqua.&lt;/p&gt;" style="text;html=1;spacing=5;spacingTop=-20;whiteSpace=wrap;overflow=hidden;strokeColor=none;strokeWidth=3;fillColor=#E6E6E6;fontSize=13;fontColor=#000000;align=center;rounded=1;" parent="1" vertex="1">
          <mxGeometry x="545" y="430" width="215" height="120" as="geometry" />
        </mxCell>
        <mxCell id="4ec97bd9e5d20128-18" value="&lt;h1&gt;Heading&lt;/h1&gt;&lt;p&gt;Lorem ipsum dolor sit amet, consectetur adipisicing elit, sed do eiusmod tempor incididunt ut labore et dolore magna aliqua.&lt;/p&gt;" style="text;html=1;spacing=5;spacingTop=-20;whiteSpace=wrap;overflow=hidden;strokeColor=none;strokeWidth=3;fillColor=#E6E6E6;fontSize=13;fontColor=#000000;align=center;rounded=1;" parent="1" vertex="1">
          <mxGeometry x="773" y="250" width="215" height="120" as="geometry" />
        </mxCell>
      </root>
    </mxGraphModel>
  </diagram>
  <diagram id="elEcgJO9AtoHNvlfTWNg" name="Page-2">
    <mxGraphModel dx="1422" dy="762" grid="1" gridSize="10" guides="1" tooltips="1" connect="1" arrows="1" fold="1" page="1" pageScale="1" pageWidth="827" pageHeight="1169" background="#FFFFFF" math="0" shadow="1">
      <root>
        <mxCell id="i9uv4yKlLparEAlZ_XJj-0" />
        <mxCell id="i9uv4yKlLparEAlZ_XJj-1" parent="i9uv4yKlLparEAlZ_XJj-0" />
        <mxCell id="i9uv4yKlLparEAlZ_XJj-2" value="" style="shape=singleArrow;whiteSpace=wrap;html=1;fillColor=#f5f5f5;strokeColor=#666666;fontColor=#333333;" vertex="1" parent="i9uv4yKlLparEAlZ_XJj-1">
          <mxGeometry x="230" y="330" width="100" height="60" as="geometry" />
        </mxCell>
        <mxCell id="i9uv4yKlLparEAlZ_XJj-3" value="" style="ellipse;whiteSpace=wrap;html=1;fillColor=#f8cecc;strokeColor=#b85450;" vertex="1" parent="i9uv4yKlLparEAlZ_XJj-1">
          <mxGeometry x="70" y="320" width="120" height="80" as="geometry" />
        </mxCell>
        <mxCell id="i9uv4yKlLparEAlZ_XJj-5" value="" style="shape=doubleArrow;whiteSpace=wrap;html=1;" vertex="1" parent="i9uv4yKlLparEAlZ_XJj-1">
          <mxGeometry x="260" y="480" width="100" height="60" as="geometry" />
        </mxCell>
        <mxCell id="i9uv4yKlLparEAlZ_XJj-8" value="" style="shape=image;verticalLabelPosition=bottom;labelBackgroundColor=#ffffff;verticalAlign=top;aspect=fixed;imageAspect=0;image=data:image/png,iVBORw0KGgoAAAANSUhEUgAAAFUAAABSCAYAAAAl8JjiAAAgAElEQVR4Ab2dCZRcd3XmdebMnDlYUm9V1Zsk78aYLewQSAIhk0AghExmEoYJ4EVSd+3dkmWDlxhDMGBitrBvhhAghDUQMAaMARsjbC2WZe0tqVu9L7Vvb3+/Od//ddutlixZMYPOeedVlaq737t1//d/7/d999aqIAj4XR6hD6EbgueD7xL4Dk7gUg8DyoQ0AxfPt3B8j6YVUGkElOoehbpPoeGbc6UZ0nLAcc2vwHcDQt/Hdxr4but3ej+ns92q0734//M1L3RxAhsvsHF9FzsMqYYwF8LuuYAvb6/ynu9OsOXOQ2z82GH+9vaD/PX7DvKX7zvEG24/xBvvOMzffOQg13xqP+/46ggf+9EU9xy2mXICSr5DK/DwZOBlx//P+znd7z4no/pBgBuAF8q75WUuoedHh7wucAi9gMAJjSN6em8AfhASuhZ4daywxYLvMVKx+cWxOv+8vUjuznFetu1+Ltn8U/o27SYxOE5vapbebInubJ14pkmnjmyTjlyNrqES8fw8idQJ+gcOcsGmnTwz/SBvuH2M99xV5jv7muyedZhrBrhaEa4HbkjoaJUATkjgOXi+gxv4uGGAPuzA9wi98Cl7+jkb1Q51TT5BYBP6DqGWngzp+4ve5+DrwhwI3BDfs3FDh6rnUQ5cfnbI4vrP7eMNN+/gxVuPcGF2iu50kc5ciY6hAp25IrFMmVim8iQOva9MPFMyR3e2RF92nkvyk7ziuqMMfugYX/jBGLPNgLof0PQcgsACt45v2fieR9O2ccIQJwjwAt2X9bs1amD+qIsf6PBY8lwnABnbwqdGDTtsETguoeNhuw6HCxZf2VXiDR8c57JNI1x89QQXDVToGWgSSzl0pi26MjXiGRlUx5Mx6Onf052psC5dpT9ZpW/TPBdsPsTvX7ud2++a4P7xKsdqRZp+FcvxcG2ttJDABc8FKwywaOKb+/zP7zXn5KkyKoFtlr4XBMaQLWTMwHivG3pYQZNW2KQWeBwph9z2jSO87tZHuTR3mHhmhniuRUe6ydpUnY4hi/Zcg85cje50lb5UlUT69MZ6MoZO5Gr05Ap0Z6doG1rgv2+p89/yLTryddYPjPGKa48y+NEpfnrEYS5waYYVQtfRDZjQ4IQBTSJnOV2sfLKvnbNRw1BeGuAH4AZaNi28sEXoWYSOi+25TNQ8vrq7xp+85wg92RG6cjMkMgv0JOeJ5Qp0bJmnfcs0bcMTtOXHac9OEUst0D1QJp48N6N2pct0pkrorCOWWaArO8+abInVQw3WbKmzNl8hlm7St8njwo0Oz0of4IZvTbJzuh5lG3ZAaIf4vkJVjWhF/o48Vcb0UFCHIIAw0C5bxrIL2I5Lyw7YPubwd7fv5ZnpUeIDJdbkW6wZKtOVXaA3WaJnsEIiVSaeniWWnaIrN0ksN0UsO7e4/M/NqCs9uCPTpCPlEU/V6Ukt0JecozdZJJ6q0JEt0ZabpSM3ycXZWf70HYf5p++dYNoKaHna1KoEQZEw9AnD8LHjyXro0vvOyVMVaxxcPLObY3ZV161QcWyO1wO+cM88lw/uYX16gg3ZEolkla5Ug850g85MhU5tKkmbxIBPQudUnVi6RCxToDO7QEeuQFdWz//zhu0wfyf64NYNlDh/oMS6gSKJ9ALtuRlWD0+xNj9DR7LChkGby685TvpTh3lwqsqCbVG3nnqee85GdYMWgaK6SQM8WoHLw/NN/uaOB7hiy3G65An5Il3JMj3mKBJPLxgvWZOvsTZXpV07fVZGrpoNqjNTo8s8/s8bc+mD6MqU6MwWzQfYlSnTlSnQlZmPPrRsmViqRneyRldeq2iB7q0NLkhO8Nob9/KVX8xQ9FWXBE8pzz3JqEu7uTYhk4equgl8vFCHYqmN59mETpPQbtCyXXZMNXn9bXvpz46zxizpEt2Zgjm6UnN0ZqbpzE/QkV+gPe2wNltnzdA8bXqeK9KZ1Y0rFlYXj6dq2Dox5bS5Cu35BdryBdoWP0QZPpGq0j1QN8Zu2zLD6twMsUyDdZsWeG7mUT73QJmZpm+qNTmPqfhCFzdUphCVcUofl5b66c6nGNXWqlZMMbu8gwysXVGGDXwbz/HwnAZN1+K7D83xB9v20J8psVpLfbhM2yZ5XYV4boG2VJW1ySYd2QI9Q/MktAmlLDoz9ciTsgUTSxVPu7LFp7z0ZbR4toqygKVDz5e8+NRzlOfq9USmQk+uygWZo9z05YPMuNByldc2cAMXVzmOVqjjmZz8dMZcem2FUX1845GP56GmRDf1uiqRgND1KFoe3z9Q5cXbHmbDUNHs3vHhGbozJdZscXjaUIkOeetmh55NAYlUi0RuhnhmknhamcAc8XSBuNmtK8ZTZfiOnIxbOIMRzu7F52bU6PctN7xC1UWDe9n2jaMcbjhYbhNcFTk+dgB1VCWeueo6yagmD/VtU36qdFNJ6sugqjVd3xi11vL58n0zPO/6Q7TnS6wertGRnaM7OW122a58jVhyP2/6zBx//PZRLr3yCOsGTxAbnjNLv0PLPbtAZ7pmkv7OtJL/Fl16PaeMYOF3blR5dXe+blKydqVm+Tp9mcMkv3SQGdsn0L23oOWHFFAF5j355a9YgesSeIH5VGxUw1uEQRPfs2j5Hr841uCPbtxHLFfivw/XOS8/bxL3/oxlLmpdap7X/cMB9jcDRlshH//hcV73nl9x8ZaHSQwWiKU9OtIObdkGHfmKiasdygpSDXqSVpQRPIXdfykEyPuWjlOX/ckev/Q+nRP5msEXOnNN1mX28e4fHDVlbmCD5zk0wxpecE5GjTzS96AVgo2H65VwvDLVwOfeY0VesO1h+nInWDs0Q8dw2eScvYqV6Tprci26M2X+5/v3MG75uF6LpmdzuGbz/QNlrvv8GJdsfIREcpye/AwJeWauQCJboSdZp3dzk+7B2lPy1LMZ8Gz/r5DUk5qnI6ujzIWDx7ntO1OUPBdfeayjlXwOG5XxVE94ZqjKzex4gVej6bnsq3r87w8+SG++aP5gV3acRKZEItUw8VHxsC3boi3X4k/et5+xluKvRWDXcUKLBg4t3+fBaZfBz+3mlTf+hmekj7Bu0xz9qZpBpBKpSWLKIJ6ipz6Vn4+nK/SkCsRyqvSqxJIOz90ywrf3V6h7Hn5LG9U5xlShNKaGR/HUw7ddak5I5pP7uCh/jDWpSRKpCv0DLbpTTdbmyjxtWHnoHH1J7eAOL3r7fo6UHHw7MKGkHjrUsbFdF8tqUXF8Hpltcef2Ev/jXXvoG9hDV2qcjkyRjtRTS/6fikH1sypS2jOtRYBnzmQn/dkZrtj4EPeP+jTdlgGTlnb6051P3qjk1p6DFVq0sPGFyttw509muWTgAB25eWJbZk0MXZ92jZeuHSqwerhk0qG+1AKdmQbPGDjIrkmLuhfQ8MBSWiYAxsOgVzgtnMChjM+YH3LnjjJ/84F9vDB3gPMH5ogla3RkVFIWaBsq0Z5TkbAEtlRpz9bplBdli8QzBRJpHSXkZbF0hXi6SjxdJ55uEU83iaVr5nUVBkrdzmT4x4yqn8/MmTK6O93kkkyVv/3H/YxYspGNLSjRbOSCPj0UMn0/JPRtVhhV+GeIFTi0qGF5DiMLLq+95QAdgzO0DRdMzhldVJT/xXM1dGgH1bl9qMaGtx3j8/eWKRDQMiWtB7ZD4IVROqIrCLQBtnA9l4YPJ6oB249Xef/d8zzvuu30bNzLunydjkyd9ryAaS1FHTW60lUThxNplZ/zBi5UAdGRrdGZrSBctTtbozvTIpG2iKUiw3YuVltnMqr+TwVCLDtPp6pDQZIplw2ZOhdnHuYjv67geGIYQqqB7BXlrrolhU285slGFUIvkNxxBH9ZLPg+t/7rNJcNHDe5ZXtGOeXJO+dSkr1k1M58g56NU/zte/cw63t4QcOkY4GnxxFuYNI0XwSTDG2Z5LoW+BQCj4Ug5LgDn7pnhjfc8gjPHxqjd6NibZHOobK5jvWDM/QMliKDZV3aMhZrc3XWKmcemiWe1zFPPF8gnlM4UZJfoSutwuTsG6HBJFTa5mZMed2ZbNGTadCXOsoVuZ+za9qiEQhU0moWQieESwyHiqbWqUa1DWQa4rZafOvhChcOHKFXiE9mgcTiMlr+SS83qh53ZBokMmWuGNzFQ+N1gmDehBQ7DHCworJXf0NQlxgDpXCBhRMI3K7iuDa+DU0nYKrhc8/hGrf8+yy/d+1vWP13v6E3OUP35rLx2M58kzbBe7kqAlLi6SgcdA0V6RpaoHN4lq6hWTpVscmwaQE4jTMu/8hT9Z4FOvOTtOdnzQpoH6ybMNObOsRVn9nHvBgPu0TgVFUTGS8VE+KFK5a/PNVSXLCaFGsef3vHXmLDVTpyroHxulOnUh3LczyT52WbtGdr9G4a47M/m8T2C7ieTdOA2k2DvaqO1g4aeibFMJ6ssthAb+KJlHrY4r4E2LQoBj77GyEf+vEcr/+HQ1wxPMK67Ajx/DgdQpxyCyZm9qXrdA82iWWciM/Kl+lQyDKVWgT/xbW0V6y2lc+V0YiB6MxN0z40Q3uubDavzlST9lSJy99xmF+NNfFaNQKvqbrgMSrGxTnVUx03xA4c7j1U5VnD+1k9XGCNYmayQXd6zsB0Ky9i+fOOZIn2fINYssJbPrSfmVbL1NCWtwhoU4/qaIE2XoS44ywa19OG5hpy0AvqhL6AG09RAtsKsH2PsYbLz0brfOBHU/zxOx6h++920Ds4TXeuQpsQqXSVXuGpqtSyLTrzddqz0UZqPDl95o1K92I2OaFoJq7OLRYodTrSFm1ph/bUJNnP7KfqBouMcLT0o8xphVFNUutYzLoBb/vkKD2p47Tlo1/aZZaN6vIzX1S3qqRMlbaBOlfk9/Pj4zXKjqq00CA+XtjAC63HeK7Al3HFtkZMpx3YNKia3FZcmLCGsGkbIAPLxmvaWI5PzQuYsn2+s6fGWz78CC+4fjcXbx2lNznG+uQU63Na7iXaMwpJQqUqBgRXtrAUY5c7w/LHyjTiWW2IES4RwYfFCKbUxpdt0PPmH3PXoQY1V0CTS2jY5AgzOWn3V0wInDLfe6RBf3o/8axQc6UrRYOBti9e3PILOPlxmfbUNLFUmVjWJp6c5E0f38F8yyVsqYZeBtSEDh6iYhQSmvhGWKF0JcDX4UeZghAzN3DMh+D5Lq5QMvMeF8+zcFyXQitk/4LNtx+usu3fJnnmtQ8Ru/pB1g1N054s0mHyThUpYhzO7BS6H8GRMlxXqmnSRpNlZOZIZOZJpMv0ppr0pca48tOPMiNc2WsaZtlQ8b7LKuGkhvdWehB4VOwa+c8ep1ufckoUSIHegbpB79tzSo6jnXTJmMtjaixbYe2QOKM5egbn6MlUWT/wEF+8b5ZKSUZ18DyVr9Fy8eWxYYNAR2CZYkNGDTwfz/dMEeIYUjEw1xgEnglNRnfgK+aGIsrM2XUcLN+iQMg+K+TT95X4m/ft5OXX7+Xi1BH6krMmf42lLTqTNh1iI3ILdA5NEhMyZgxYIZEWUlYyXmlWZ7pG3LAT88SNUcW1lYgNW7zghgM8PGfh26KVbJOLCx5cJXpEwIlIPB37Sg6v+fuD9Ay0DMuZyEzRv7lJz2af9twcnSugueW7v/LUtbkGPelZNgxOmKR7TbbJM7Yd5ZoP7eZ7D5eYs5QHC/CSJ2rDUi1tRQCwMajSOQc/tDFGX8R1ozABhtA9g1TJCyQjatHwHAOE7Jpq8qXfFHnrp6a4cGAHPQOHDP6rhF5ag84tU3SIKUh5hhHoSU8Sy5ypqhNkucDqnEd/+hjf2D1vihphri2jg3BZZcg8EXiBJDg+/3GozHPzB4gnXdrzZWK5E/QOiqN3DYfUuSKmLjeqHvckG6wfKNCfnOdpOYv/us2nbWiavvReupMP88Y7HuELv5rmoYkGE1WLpidvFW7p0NTSloJESLkTpVyhL0RocfmHwnvPDGaI7nGo4C7qDxqBRzkMmArh/imLoS8+yB/c9EuekR2lb7BsyuK1coasbWp95aZnjrmq3Iqszbv0pE+Q/NgBysJKfK0msQMtVpkl5LkG6W+EnolJ6zaP0pnyaRsu0Tk0Srfo46QQey2Lk5f/SqP2DTZYv7lKT6rMGiXk6RM8b9sjvOrG3VyQfJD2K/ewIX2UF914lP/14aP8491z7K9KTxXQslp4jr+obom8Ugm1EW+EKhyimHy6envpNTEUwum9UEqZhknGfa9lqqCG4q/nsXO+wad/scBLciNckJ6MKO1ck/OGaobqWXmPS6Fu6RxP11iTqdKdmebyt/yMvQsudVVUgUcYNlhlwGejK3KZcwKev3UXfWnRuT6q6zuGRolnZg3lq11x6RcvnVca1UhwVP0YMq/CJRt3cf/xkIoLhyoBn/lZjas+fJQ/uuUgz3rHEc7PPsxzcg9w7eeOcveOIgdm6sw6FpXQoxpYWAYUFq0R6ZzCsyBEyn9FJalgE5cuxF75rorzUIRe4GB5FgUX7ht3+Iv3/MaUn/GksIYGa4YXTnGcpXtdOsezddoM61vkgqsO8Kl7D5v7kyjO82usCh0Jx2zsIOCeQ1U2JPcZQVhHxqYtt0BHfsKIIWKiPlSRrEiclxs1rlxxeJr2/BQdYkdTTS66aj8/2V01O7YTRuKFgu0zXvV4eNrih/safPrnBfKfP8Grt93Pq5Pf48obf8JnvnuCkYJPxQ2wPEklVbYodTkzQPwYS6Hd0JMh9X6VyL5RGCr9wY74pqrfZG/VZeBT+3l6cspQ6p15rcaTS/GV96zwoDisbKgvOc/GT26naId4wjcCi1WhX8NzW1QCeP939tGbHqUrW6crpRq5TGdW4gOVeYolp9bNJxu1ylrBgPkpYukC7RmH2KYp3v3dGWatEBuLVmBjaSl7wgSqhE4Dx3EoBw5TgcuOyZB/vqvB9bc/wKbhf+bwWANbHmfkg5Eobmmpn+4cShmnosFvRhlFKKjdxsHBVmBQQqzc17Pw/AWqYZUfH6ry/NRe+gZFnUc57amGXDK04E1hvkXWZi1Dh7/m3bsZK3gGP1YGtSoMy7i+9J2Q+vRuurPjZodPJAsG4lMCLJGD2fXTZ17+8ZzQf9ukIOuS0wabjA0Xef3tBxirB3jKU6UC9CS5FKDiEUro5rsmHWoGLWq+QyMMKdpN5usV6o7YTCnxJCMUYHFmgNhIdoQDm0PL/fFDGYTZpZVZ+PJ+25TNhyshr9r6a3oHxaM5BmZ8YqMW6MqNR5tVxuW84SIvve4oh6YdQruO6/rKU6VysxmrBfzVB/YvUhyqk8XdC4esGqQmAiSWPq3Hzyd7ap22jE13qkxkVO2SRS7K7OQHeyq4lgAUlXYqkFxjXN2kLY2oJEWeqHAPJ7AMMGH7TdxQoLmACm1YMujZjKr/j2RJj50F4BgCMwLem4FNKwwN5+S4dfbMWDw/vYvupFbXqfjGyQYuLK7ECp1pm7W5EpcOj/KLkTqha+PYIatcpC1tMVp1eNV7RknkSo9x5jLYyb/wcWMuvb7cqHqsDEESm570vFGgrMlLLjnCX976K2YaglV9UwkFfgPPr2OHwm59oy3QhiLxggqS6FABEAHcYnaN4PgsRpUGavk/PT85TLimQhNq5vqK8XX+5VcLXLxZ9FCDhELXGfJU3Z8AHJW+vYNiYCv0DI/wzX0lPFdiYlhlKwl3HA4u2Lz070+QyFWeklEl5+nKFI1RhcIr+Y/lZnnG4AN87EcnmLOkXq4SutWIudW+4YsdMAz4ojo7qqVVT0eFgHJZy5S1KgpONtLJ6ryzGVXKaW3KUnv7wjlsj7d9+BgbkjPEs00SQ6c6zpID6RwZtWDAaxGeAnBi2aN8YftMpGrxZVQtRctn94kmz3371EkGPVdPNci/vDVbpseIJQSuNBG43T1whBdu3cU9xxtUDLjrCjSV0tbkpULN5Z0m/TE6rcg1jfx9cQdfEhs/FaNK2NtUVlBv4kkUctDl0swUnUkB2nXaxPufcfeXp8qoQsMk4azSmT7OHT+awvUj5mSVlpRth9x/pMrTt5zdqMtrfYOfLpfYiE7J1enIVg12IPBBij9DpOXrJJITvOqmB/jlWJ2ieHTHM7osARKIIQgbBpgIHN/I3iViEA7ge0KCloCWkz3zdAZeLoNcufytMKSpDMCpMl1weO079xHPy1A1unIF4lsi2ZK8MtK7RlKix+9bog+J4CrGcTqzNTpSE9zyjWlc6SU8j1Ui40Tu/fJIhcu2Sun8uA7pdJ66MoaufB4p+QSzCRGSUevGqGtzFu3ZBuvTJ/iTm/fyzd115r2QeuDRFCegrpVQj12qiNKOjqav3b+Fp7NXNaKO0xnyyb6mDbGposJv8eWfFbgsOY6Eam3DdeL5BUPBxLJlI8RYMurKe4zlK8TzFXpzC0bN0p6cYesXZ7H9EDs0RpXYNeTeI2Uu2TZN7CkaVU0Rqo3FSnZktHEpxorukHGbdGUtNmRmuXzT/eTvHOHLD83z7b1lfnS4wT0jTX4+0uS+Y01+M1Znx2iFR44VmC6pr0ro1dnFYWc3rmKqz4Gay1++/yDrdI3DM3QOa/kXDRclBaI884mNWiWeL9KbmzVGXZsskP3cAg2jMBVK5ftYrmuMetF1E0/RqNLtzxkFs0KAPFNGjWcWzGEo4mstU+Ktzy8YHf5FmUkuHZri8uGjXJbeweVX3s2Lr/k+f7H1R2TvuJ+PfG03I9NNo3RWS44ngcYZUKqz/Z/kkAJu3v3DafrzIyREfWdrxIbHDUPbPxiYIueMRhVzLKPmpyNPTVXJf6FAQ0y0PFVNYo7jcu/RKhdeP04s/9SWf29qgYTh/4UfVOnKVkhk1dwgeU+R1Zl51m4tslpUcs6nf+MCr3jHUd72scPc9r0C33zYY/c8zHgh5SA0rGVLcV8QpVgD3zYdg6qwBLZE+lk9FoHYIlSh4C9K6A2i5ZiWHsmYpIUKHIuHRms8K/MzEiIFFeuzdRJD4/RkKvQN+iY3Xx5Tly9/hUfR5T3ZIn2GHKwbVfbWLy9QN31mtozaNAn5A8cbXPZ26e+fmlGXpx96vPyC9DiWVb9UmbVbLTrSNf7o5mPsLbsstOrmw1UB4AiZUr1vutsEiMhooTGO9LLRc5WckcEidaKyhajeV9IvPMXHN70zLj4NGdV1qVs2Q1/axyXJ3fQJdM9ZdOXLdOdnjaF6MmfGN6Rq7BhSW1GJdalI59C1qcgt35qlqhUkMYUnUYMdsHvC5jk3jJ81T11ppJXPz2jUbI2ewQbdQt5ztvHcF1z3EL+ec2jIwxzLfMBqFjOJvrh0cyiBV0nrmAorwq6kzhLf5RjBmJrkIhwWUEUVyqjKFCSnrxsvrXshPz5Q43m5fazbPEMi6RLP+PRktelIMKcS9NSCZ/k9yuk685FR+9MycJn4pnk+es8MVdMt6LBK7KXvhIwUbF7+zhG6z1JRLf8Dp3t8JqOqJbJvk0XvZjGTCySGFgzVkfnkYaZt0SxVPLcQyeANsrRoXNMJI6xAugEBMh6O8NKwSRjWIKiCL/ZVgItq0lCtM4gBl4gZr4hvVzlY9nn1ux6mf2CenrRHLAmxAZu+TJm+7BwxSYyGG6fkqcvvU0aVt/anK/SJsxsucH5yjq/umKex5Kkq10QBjxctXvuuR02asJSTrTTQ6Zbz8j+oxyt/Zul3mbMS5mTTtP7EhqfoHJqnO9ng8o2T3PH9BU5YDRy/HBFp6ssyYIswSnmckKVI0RzaoEOeqd6twG3gL8rIjZ7JIFoqd6OmucCpYNsOd9ytzegQMfW4CkHLOKwfsliXUXwsmE2nbdg+q1Fl2D41ZGQadA7P8/TMJD/YW8Y2TcY2q5qhyjWYrzq89cP76MuKTohKNTV9LT1eOq804srnS+97onM8q36AioljHcOKrxXW52pckTzM8J3HOVZ2sW21OBodjQEpwnCpZTPAdWrgVkz8NHoAtT/6IgTVGCcWdlH5LeA9EDijNnaPfdMNXvr23bSr/3VIIosynUPCOYqGs+pT6pdr0TZ0ZqPqfuO5Kn1pKXFaxIZn+L3hUR443jLNw9owV0UBPDQc0XVf3EtfevykHG2lcVYaceXzle9f/lxIl7yzK9egO+WbvxPbNkN7foaebJmLBifY+E/H+eVYk1kXk/d5Bvu0CQWAqP81qGIzSy10mbYD9i1UOdFq0BAsEy52cRv1nVAtz0jKx1sBmz9xmP7kUdoEmuTKRhbUMSx9VomeTI2+TMOUqUZev6JMXXmPCWPUJrGsRWx4gldcd5jDCw6uq/DksqpuUg0VADU+d6+EX0eNd8pLtWSXG0WPT/0DZ84Wlv+8jNoxrAKjwvpBnw3JBonsPOdlyrTlbHqGFogn9/GSdx7ihm8eZcxSh4iwAQvPkUYgpOQH/GY84I5vF7j6A4d4/XXf59/3TCOBW6jS0HEf0wwIkJEy5nM/n+WSoYPEFNPTDutSLSOWaB+u0z7cIp5x6Mm06M4VSeSlwjkzD9edlae2jFHjw+O8/h+OMl4VQiUNg8cqS7uk9KNunYenPC4aOEAiU2Ct5NlDEbUgaaG0n6IQ5PpnMuxyI576uEyn1HjZMv3JJusGayQESOTEZFp05iUom6MzPcWFqX28NP8At313nm/uavHvjzh89hcV/s9tIzx38Cjrrp7g/E1VXpB8iO0nmjiSDlkhoS0UTMCGOCqfUr1F8oM/4QXDe3ju0CgvyRzjZZnjPOfaI/RvG6VdLZ6S1edK9Oam6TFsahT2nqiiEkTYnSzSOVwkkRph62ePULAtQzj6MqqwR4EOQsqrns+fv0vSmRnOy85xXl7NZZEeX+CImsliT8moitUne4FWw0kfktGVVulNl+lLF+lLz3HB0AIX5udYn5pkQ2qOvnyRpw0XaMs4vPztOxmt2QS2DKolL1GDHmsTC6h6TbaPFbh3tMG9x5o8sHh893iTN39lmnh+hs5cy8T5npsmmy8AABSkSURBVGzJhCE5g67rdEY1u7/0WtkFurbM0vF/H+Q/dkjCXza5sITSq8QAqrRzXZdWEPDBewtcODBuavQ16shbVNIJeO6Q1nNFcXCSQU6z+5/qrdEmuPT6SqPquTxZgIwkmYlMke60qJ0FI5ATzaMu6dXXzhDLFbnyUyPMGDY4EoM0VXtJ22SmUHhYYY0yDvOElEKbalhjTl02k03+4GaJRlRCB8QyoSkEVGGdzaiS0fdqY0uWuGzwN4xbyjIaZl6ACMrHtFQyrmTk94zVeFF+jJ5B3yiY1ZufSDZJZKTTlLji5Bj62zaqECLxYRJtCOxWBWZQo8UJFGJo2zNqFyqQeNthPnx3mYpSL9czYHczVOytG01WVHlF8iHTUOa2cP0KB0sOb3rnTp6xacrE1+6s4mPLhIK2rTNG9vPEnqr2TI0aqdN7VZlrvz5LyZTDS+NOeNyoCgG273KsbvPm246z/ppqpPFMW8RTNRLZmUi4dY5G1RLSEXngqRvfklfow9F7YtqZRRPrbA6VkqKElfJU6cp5JgZr+V381h388ohEajbYddNP4AZ13KAcCTA0bsSGoCXNrU/YUuoYcP1XR7hi0wnOH/ToydZIqP0oP29yzo4tU2c1alt2hg1DTZ65cY4fHqqbTMRXV6A2KnFUy1EdpSAN3+H9Xz/CZZsPRfy/jJqOZOFCmVZ65srnS0Zcfl4y3NJrer5kxCVjL52VISwdEsPJkAKEtUraMmXW6rXhefozh3jZ0AMcrClHVSVVNlJ3x2+Z58pbBW6HjlhOVWoVmr7PF+87waVbH6VHEzJyDrEtBeJDE/Ro59e9ZmzTeKzr0fUuXevSfWqj7swV2JCd57Xb9nG46NGSiFnssFc3PRMnGdWIwJyQ3ZMNnpv9Eb3a8TMWMaN2E8tYRDna0h94orMuZMmQSwWE8UJxPIsFxZJR9VwXv/S7YobBVWUWeXWHgG6jPyjTni3TMbRA4tpJ+jMHef0dh7ln1mLXQotHC032FiwOzDVYaIjyFrHnGF2B7yqvLfPTYwWem72LxPCUETObrprhAr3ZggFHepI+8RToGp7IqOa61chx9SPc+pV9Zm6WgO9AWgO3jhWs8FQN4Qrqmu/U4MYfS/QrLqZpFCrdKSmMC6cALkvGWDrrYvS4I1mkTZvAYjvjkpGXLnbJC/S+9kEpoKMQodKvJ23RnWmaMrDLaF0jCkPcUGJLHUk2NXPl4uFpXnjzCC+78SAvv3kXL795hDfccC8j01Ujh3fVnWe7uK7DoYrFG967j+5NEv02I1l7fgbF03XJJutTRZOnduXOvFElsg1iGyXCe4hHSk08R8IQAT51Qq+OKtQVnhrit9SAVebXkxYvvWHKKFPUOi69qlGpnMVTpTOKD5Z51pZDXPOlWZ6zdZRLhw7z+7fs5xU3Pcof3vggr3rHdl5566M8e8sIr3nvUa65c4JnD09yQfY4z/v7EV560zH+9Pod/MkND/GSW8fYkJuhWwNn1JibsUjkbTqzruln7Vfbu2SRCinZCq++fg8nyg6WmU3QxHN9Zuo+Wz9/gr6BKdqFSgkh0wCFvJB+m75Ui141igzNGEpF9xrPSUG+QFfapjtt0ZOrEDNjSyTAm+Wm71cpC49oCnsI8bU5mni+wqhmiIIEt3aLqh2y9YtHWJ88ZnK3zuRSSnXm5d85XKbjyjlu/d4CI82Af95TZvOXSvz1Bw7whtv28Pl7Czx4osiVH9nJi3OP8LWdBY42fD7/UIvXfeIor/nkXl7/vu38eOccvzhc5o0feZiLh0fp1bJXRaSYly+zdsgiLi9TH8Jgk9VJh1hqgo0fP0DFDXFUhQUlSp7NR++a4vLUEaNDWJ2rLvJwK+9DzyMWoEerMjdrjKou767BBl0SA5shY3VetGUnD847OIrZlmeMaksVHrTMULFTPNUo47wGSk22T1i8JL+d3oEZYnmNO1owJebSUj/1LFxS1dAo3x9v8dFvHuHZm7/F+sHjXDAwz4aBE3zopxV+PVXmD/N7eMn1J/jBsSbX/dNurrj6p/RKJZI6wMUDu/n+gzXuOe5xxdYd9OUmDY/UbhiEKFFvG64Sz1isS5bM0Jn2lEPHWw/yiV8WaLg+fjOkaTVNy9ALtx4hoTCmWJ+eP+O+YJB9MQHpJnE1wmXLtA8VWZubizpgrh7lpq8fYs73TXomqY/o9Zaao6WkcJalVCYLiOYiGf69EZap+hZf+3WBZ+aO0Zl1TDvj2crU/sEaL7zhIB9/YJxtH9vDVV8e5YUfmqc367Bm8zjv/uks26frvDx3kD9+3xH+4QfHyX3oMFd9cYLnv3+KrmSBdZvH+dYOh7uO+1w0tIeu5Ex0U1s0Ka1uqh+18mhZ9iUbxExpWeeiTft5aNYyI0nUUr93wue1N4+YiRPn5VvE8xr1sWDCyKkOEeXfAlTUjdOdDOjbrPx1nqdtKfO0fIO+wWn+9Ib9HKnaNBRDg3kk8BOorrYfyZlOMapkh6HdMsylVNWe22S+6fOWjxw01YxuIr7INJ7+oup05zwu3TLBe74zzqQLt/1ojlf/0wm6B6WzmuS9P5nioak6Lxo6wRXXH+fOnRWO1j3edfcsV7x7ili+QM/VR/nGjhZ3jfpcnNtjqhelVeLlE2mhSVU6h+fMhtafsunIniCRKvBnNx9noubjOk1OtKqkPzfB+gFpSRuGhtb0C/386a89MmrnUIXzBAkmW6zfrP7UMquHfNrSNr+Xf4T7T1RpaOSH1zJaBc1BsBDhJ5ZCck9v5UYlhUgdRzOa1ILjeLRaDe49UeeyTfdx0UDxsWFcS7v8ygvsybr0bTrBX97wEw7V4dVb9nFhcpSLJVm/ssiHflhnx1SFP8yNcMmV47z7G1M8Mmvzh5l9bBgs0ZudZ8Pm/Xx3V42fjnpcnnuYdRqwkLFMY0avPliVw/l5s8H0ayZLfore1BjX3TlKww9o+D53/HSeDbnDtGvqhfLr7HEjCVX7vJQoK6976XlXrsIaxe90wXSFx1NNulIhHf9nhJv/dYSC1NmOem0F72l2lQYwaulLBHeaNkqh60Zfr15LUztHIq6i6/DFX9V4flpTfaICQOMxli5k6SwPas8u0J/fx7Z/eYBxL2D4C/t5+a3HuDg5T9/GIh++a4EdEyVeNrSPp6dP8NGfjDBWa5H99GGed6to3yWjVrln1DVG7dfEioxrVIg96oxWFSRwOaXWJHFGRTZkDvOVB4qUXIf/2Fvl2ZmDhh5pG1LjQ4He1LTBDKSWXikYWbp+nU1MNco/YQLS5FZZt3GMP79hB8frUieWjAw0GhAZ9adqcodKYqOioXGypy4xllGzlUa0uTheDdetMesEXPu1Q/RlIhBbRl1pWF2Q+kT7h8a45iP3csIOuOqDv+LZb3+U2OAUq5Nz/ONPJnlwssZzhw+zIVvg9rtGGKvUePP7HmDd1jE6c1XWbTrOt3c1uXvM45L8XrrTjmnl1HiQmLxMsqJshXUpoVlqd7S4bMtBds602Dvt8sd/v4fzB2eIJ5vEh7TZaJORElxDGs+MCav7ujdZN/L6NfoAMtO88qZfs3PeMu3ohr6RvNNXc7QMWQJ/IZoC5Iam1+ek3V9GNVikabNpGnLN1WNX0puQoxa85vZD9KX3k8iqkVZLQ3G2Qtz0B1RoS3v0bCryF7c8xAE35A233cclw4dJDBbpGJzmjl8W+fGJJs/Zepy+jQWu+9dZHinb/NWtD3FBbpbejMWFGw/yb3sb/Mu+JhflDtGVcWkfsojlF6JyMls26VVvumZoZc0RfMk7D/BAyWHoC0foz4zRnZylJ9WiKy1tl3T8VSOv79Y4D3m62tgN3Vw1jGgsXzKoWG+qYlp/2tNRH+pluV38254p6ur1cmtGcyCGQfyXht8GfpVQhxv1/EtHe5JRH8cBBAcub62JHgun3LPg8Vfv30FvdoL2XIsudVgPFo1gYs2WAm3b5D0FnjOwm4/8ss4dv6nw15+WcqXOpe+Y5s4DFpvuHKU/PUFfqsgrbzrIl3e5fPTXNV7x/jKJgbKRdH7hsM2f3baT83OTtOUd1g43jCBDBF3CtJyrsrKMgdZlpvhfn51gy3fHuSz7kBmssBK3fbx0VhGhtEoaBE0ZahoAJ6YBEakF4ppDmNMAhnmentrD13eVKLnyyJppopNkSPn8E9tqGfT3+JuW/8CKx+rCs+rsGHd42dt3050bI6ExH6mCGUGn3XXt0BQ9mSJPHyhz8ZX72HDNDnoHjpJIzhMfmOTSzAEuGDxCf7ZJd8pi/aY5zr/yEOuvPkJ8sEh33qZ78AQXpnZycWa/ERCft6XFeVvrhtuKUCXpnqTS06bTokfChsFxLh5UC8+E2bGXjLjy3JmbNw1pCcM+WGwYbLIuVTQtkmuzVc6TPD0pg27nY3ePUjENc+qrlTA5Sp2iCXMrbLPM0E/gqaf/AXHqoW1hOzb7FlzedMd+4gMjdOQ1zlixqGH6WVUu9id9+gZcYps1naxAb65Ab1okW4XOQS1jSWcUsxxzdGWUb6pBV4K2Cv3pBdaly0YHet7WCmu2lunMOSTSEmGoKqoaSlkzpLoyNfrltZuieLjSkMufa0xIx5C0UGUj29mQnmOdNAjpKmszDmvTFpcl9/L1HUXKEnc4cxpZjGXGligNXempp9rqnIxqNjKjaagZOO3gjMUbP7CH7uEJYnnH8E79om2l3Mg2WJPWQFjXKP5U5vZr9km+Qtdwhf5c0Uz40Uw+NYWtFd8jlUi+QIdaiwYsegZdA1C3D0/TMSRCTt6tD0FJec20QXZJITJcpT1ZolsG1+a0bCaVHi83akyEXcozpW771gnah9VpotFNLXo2z/CcLfv44v0zVKTJcNRBM2faMuvab5TcL2plz7Syz9Gomu6rAWBiDtUA4XGo4rHtq2Mmt+wRp5R06FWQH5ph9bWTrBmaM96mYV5Gr6qpEUY206Q/1TQe176lYChjKUV60wtGddc9GJgbTZjpwNLjz9OdikY2aeRyTPMC1TUjstBMoFhAm400BSelSCuMmpAIYrDK6vQUT9tW4L/kWrSnQi7YNMuf3bSdX45Vqctwi83E6uKu4xgNrcFMW77p6fqtGVV5mPIxGVYz74ySzvWpuR6f+PEkL7z+UZPor0sXzbjPNVtG6Rg+FrWDpywDNCunlEKkW1lC2osgPqmSxb2nLIPh6sZjSY9YSqFDg8DnzTAw5Ztmwo8S+KxyyrLJCOJD85jDiHbl8Y9TPis9Vf3+3RmRfQsm/Vs7WOGiwWP871t3sb/gR+WnXzLqGCX0muhjmfZ4NSW7UYvnWboOz8lTVcbiat6JR01GRUYWjVGlYnncN1rnjXfs4vzkCWIDXsRnZY/Rm5onnrJZI5okL/KwQvtwEYkZ1FbUnxIf3zD4qRJuzTmRLKdN3c1Z5ZstYslgEaQWPFehO1+jO6eyWNqBKEWKAPST0aeVRjUDEQQMJRtGxvn0q3/NZ++bZ6qlnNwmtBr4oQZIhaYtSJWnWFoRYI4ffSeB0svfnqca5Z0GHkQTGh0VB07FdA7Li9X1MWG53PbNOX5/yzTrBqaJp6eNRwnsbstroyqZlEt4pck7jYdqmo7AcFEVC6aLTnNLNBVDu3WX8NK0S7tGcORniGls6FDEQnRn9WEI0G7RndahPi6bhCSRYoNz81GLzmIPv+J998AMT08d4e8+cIC9BY+aiLuwSuBXCNwmru7F6LCi2QOGUbQl8cQ402/ZqNrpluevS88ff61VqVNteGwfa3LjNydYv/EBelNTJMzwLeWGFdokChZAkq4ZSE5of29Go+mkuo7mqJoplWJvDTWjzUaNchHNIbRJ2YbyyViuQVdeH4hFV842FZdhYQ23pRF66mOYIzEwx/rBOt1vOsZfvfcQ3360zGjTpWaLBtEIvagbULjoqff4+A5/co76+OvLPfeclv/yH3yixxLtNlsOTV8SnZAHp3zSnzjA7197iAs2j9Oem+dp20qs3lplzZDSomZUHWWqRp4oFElTK8WNaUyHekU1xCs6NEWtQX/KoS/l0JO2DVDdlW+YNKl9uErb1nlWbzlBm/ppB+ucn7K46JopXpA+xJ/fuJtP/bTCpAMlo7PSYG916qmvKhrTohmpT3RvT/b137pR1UFoOBuNb5NixArMhIhfnWjykZ+XeMWNx+m96gj9m8Y4P1ugz+hhJRhT/qjxc3W6ky0SygzMUTdzpOWlaunsSSlrcOhL2/RquWe0KSmOlgxsqPYdeX7f5irxNx3h8rc+yNu/PMnd+2uGfq9IRCa0XmicM4/vVw1kJ7Wgyk5Ntniyxnui9/3WjRrNm9JsEw1y1fxq9YBi4lYRixnP466dNts+fpDXXbedF+d3c0nmKIn0NO1GEjRPb2aSnqwmB8+ZoTiSHKmDW2mZ+gjMeDwp9kwmUYj6aJML9A0UuSw1x8tzo7zxlkPc8YN59tdDikBVm4+mnUnCLomQK9Gw+l71BTlL08/qEJSNFvaJDPZkXv8tG1XDChpG8SzxrWOGAwsu0yTHpuHlffO1SBY1N2C0bHP/8Tpf21nh3d+b56/ff4iLM7+ic+AB1lyznfOu3sHqjftYvekYazdNcd41M6y+aoy1b9lH25sfJP6W+7jomp/xyhu2k/vSBB/7RY3vPWrxyEyTqVZoxnC0TDqkWS0auBtNbtPwRukCWvqqJunaFgchGhDZzKF+fI94MkZc+Z7fslEl1G2ZXnuXpvkeEn2rj0Ygme+g0tdpiAZf/FYdeYma0hq41EOXSugyHgTsrIX8x+GAz99X4wPfn+LWfxvn5q9NcsvXZ7n920U+e1eN7z7osWM8ZKoZUPUDM5vV9jUtsoIbltH8K/UImInnntoLo6lt6maJ2t4ckzIp19aHb1SCi+rslUY61+e/ZaNGaYeaajVSSCMxA1fxSxVK1FgmykEVmSY7OhpKY8YzO1H7pCZPSG6uCQ+aDeDYuGr3Nl8Epu9lcWloGJiG3Ia2GeestkXLjVrbHSfAFqapHlEzYikyqvpbzRgQIxyW2lowndKlqGVd4/fVWCzltX72XI248v3/DwCDKX8d11sKAAAAAElFTkSuQmCC;" vertex="1" parent="i9uv4yKlLparEAlZ_XJj-1">
          <mxGeometry x="414" y="320" width="85" height="82" as="geometry" />
        </mxCell>
      </root>
    </mxGraphModel>
  </diagram>
</mxfile>
